<svg data-v-0dd9719b="" version="1.0" xmlns="http://www.w3.org/2000/svg" xmlns:xlink="http://www.w3.org/1999/xlink" width="100%" height="100%" viewBox="0 0 340.000000 250.000000" preserveAspectRatio="xMidYMid meet" color-interpolation-filters="sRGB" style="margin: auto;"> <rect data-v-0dd9719b="" x="0" y="0" width="100%" height="100%" fill="#fff" fill-opacity="1" class="background"></rect> <rect data-v-0dd9719b="" x="0" y="0" width="100%" height="100%" fill="url(#watermark)" fill-opacity="1" class="watermarklayer"></rect> <g data-v-0dd9719b="" fill="#333" class="icon-text-wrapper icon-svg-group iconsvg" transform="translate(48.849998474121094,94.93114280700684)"><g class="iconsvg-imagesvg" transform="translate(0,0)"><g><rect fill="#333" fill-opacity="0" stroke-width="2" x="0" y="0" width="60" height="60.13771536819316" class="image-rect"></rect> <svg x="0" y="0" width="60" height="60.13771536819316" filtersec="colorsb562940412" class="image-svg-svg primary" style="overflow: visible;"><svg xmlns="http://www.w3.org/2000/svg" viewBox="-0.001895904541015625 0.0021209716796875 901.7664794921875 903.83935546875"><path d="M825.07 485.68v-44A14.69 14.69 0 0 0 810.38 427h-44a14.69 14.69 0 0 0-14.69 14.69v44a14.69 14.69 0 0 0 14.69 14.69h44a14.69 14.69 0 0 0 14.69-14.7z" fill="#094"></path><rect x="678.36" y="500.37" width="73.35" height="73.36" rx="14.69" fill="#094"></rect><path d="M663.67 427h-44A14.69 14.69 0 0 0 605 441.69v44a14.69 14.69 0 0 0 14.69 14.69h44a14.69 14.69 0 0 0 14.69-14.69v-44A14.69 14.69 0 0 0 663.67 427z" fill="#094"></path><path d="M825.07 515.06v44a14.69 14.69 0 0 1-14.68 14.69h-44a14.69 14.69 0 0 0-14.69 14.69v44a14.69 14.69 0 0 1-14.7 14.65h-44a14.69 14.69 0 0 1-14.69-14.69v-44a14.69 14.69 0 0 0-14.69-14.69h-44A14.69 14.69 0 0 1 605 559v-44a14.69 14.69 0 0 0-14.69-14.69h-44A14.69 14.69 0 0 0 531.62 515v205.45c0 96.31-74.24 175.28-168.62 182.8-8.09.65-8.09.59 0 .59h168.2c202.8 0 367.2-164.38 367.23-367.17v-21.6a14.69 14.69 0 0 0-14.69-14.69h-44a14.69 14.69 0 0 0-14.67 14.68zM737 353.66h-44a14.69 14.69 0 0 0-14.69 14.69v44A14.69 14.69 0 0 0 693.05 427h44a14.68 14.68 0 0 0 14.69-14.68v-44A14.69 14.69 0 0 0 737 353.66z" fill="#094"></path><path d="M305.61 138.25l-38.09 22a14.69 14.69 0 0 0-5.37 20.07l22 38.08a14.69 14.69 0 0 0 20.07 5.38l38.09-22a14.68 14.68 0 0 0 5.37-20.07l-22-38.09a14.68 14.68 0 0 0-20.07-5.37zM404.41 250.63l38.09-22a14.69 14.69 0 0 0 5.38-20.06l-22-38.08a14.67 14.67 0 0 0-20.06-5.38l-38.09 22a14.7 14.7 0 0 0-5.38 20.07l22 38.08a14.7 14.7 0 0 0 20.06 5.37zM335.5 307.37l22 38.1a14.69 14.69 0 0 0 20.06 5.37l38.1-22a14.68 14.68 0 0 0 5.34-20.06l-22-38.09a14.71 14.71 0 0 0-20-5.38l-38.09 22a14.69 14.69 0 0 0-5.41 20.06z" fill="#e60012"></path><path d="M331.05 123.56l38.09-22A14.67 14.67 0 0 1 389.2 107l22 38.09a14.68 14.68 0 0 0 20.06 5.38l38.1-22a14.68 14.68 0 0 1 20.06 5.38l22 38.08A14.7 14.7 0 0 1 506 192l-38.09 22a14.68 14.68 0 0 0-5.34 20l22 38.1a14.69 14.69 0 0 1-5.37 20.06l-38.08 22a14.69 14.69 0 0 0-5.38 20.07l22 38.09a14.7 14.7 0 0 0 20.07 5.38L655.65 275c83.4-48.17 188.92-23.35 242.62 54.62 4.6 6.68 4.55 6.72.49-.31l-84.08-145.63C713.29 8.05 488.73-52.13 313.08 49.23L294.38 60A14.69 14.69 0 0 0 289 80.1l22 38.08a14.67 14.67 0 0 0 20.05 5.38zM235.3 280.52l22 38.08a14.68 14.68 0 0 0 20.04 5.4l38.1-22a14.7 14.7 0 0 0 5.37-20.08l-22-38.07a14.68 14.68 0 0 0-20.06-5.38l-38.08 22a14.69 14.69 0 0 0-5.37 20.05z" fill="#e60012"></path><path d="M264.46 761.84l38.09 22a14.69 14.69 0 0 0 20.07-5.38l22-38.08a14.7 14.7 0 0 0-5.38-20.07l-38.08-22a14.69 14.69 0 0 0-20.07 5.37l-22 38.09a14.7 14.7 0 0 0 5.37 20.07zM312.38 620.08l-38.1-22a14.69 14.69 0 0 0-20.06 5.38l-22 38.09a14.69 14.69 0 0 0 5.38 20.07l38.09 22a14.69 14.69 0 0 0 20.06-5.38l22-38.09a14.71 14.71 0 0 0-5.37-20.07zM396 651.38l22-38.08a14.69 14.69 0 0 0-5.38-20.07l-38.1-22a14.67 14.67 0 0 0-20.06 5.38l-22 38.09a14.69 14.69 0 0 0 5.38 20.07l38.09 22a14.71 14.71 0 0 0 20.07-5.39z" fill="#fabe00"></path><path d="M239 747.14l-38.09-22a14.68 14.68 0 0 1-5.38-20.06l22-38.09a14.68 14.68 0 0 0-5.38-20.06l-38.09-22a14.7 14.7 0 0 1-5.38-20.07l22-38.08a14.69 14.69 0 0 1 20.06-5.38l38.1 22a14.68 14.68 0 0 0 20.07-5.4l22-38.09a14.69 14.69 0 0 1 20.09-5.35l38.08 22a14.69 14.69 0 0 0 20.07-5.38l22-38.07a14.7 14.7 0 0 0-5.41-20.11L207.87 390.32a183.38 183.38 0 0 1-74-237.41c3.49-7.33 3.54-7.31-.51-.28l-84.1 145.62C-52.13 473.88 8 698.45 183.62 799.87l18.7 10.79a14.68 14.68 0 0 0 20.07-5.37l22-38.08a14.69 14.69 0 0 0-5.39-20.07zM422.82 751.59l22-38.08a14.69 14.69 0 0 0-5.37-20.07l-38.09-22a14.69 14.69 0 0 0-20.06 5.38l-22 38.08a14.69 14.69 0 0 0 5.38 20.1l38.07 22a14.68 14.68 0 0 0 20.07-5.41z" fill="#fabe00"></path></svg></svg> <!----></g></g> <g transform="translate(67,4.902606964111328)"><g data-gra="path-name" fill-rule="" class="tp-name iconsvg-namesvg" transform="translate(0,0)"><g transform="scale(1)"><g><path d="M33.4-0.16L28.85 3.11 17.9-12.93 12.7-12.93 12.7-2.49 18.87-2.49 18.87 2.76 7.07 2.76 7.07-12.93 2.68-12.93 2.68-18.17 7.07-18.17 7.07-31.03 12.7-31.03 12.7-18.17 33.36-18.17 33.36-12.93 24.66-12.93 33.4-0.16ZM15.65-22.64L15.65-27.88 30.8-27.88 30.8-22.64 15.65-22.64ZM60.7-11.15L55.07-11.15 55.07-31.15 60.7-31.15 60.7-11.15ZM38.83-31.03L44.47-31.03 44.47-23.65 38.83-23.65 38.83-31.03ZM68.27-15.92L62.8-15.92 62.8-27.88 68.27-27.88 68.27-15.92ZM52.74-12.12L47.26-12.12 47.26-27.84 52.74-27.84 52.74-12.12ZM38.83-22.33L44.47-22.33 44.47-14.95 38.83-14.95 38.83-22.33ZM67.42-14.33L70.41-9.55 49.32 3.61 46.33-1.17 67.42-14.33ZM44.47-13.51L44.47 3.18 38.83 3.18 38.83-13.51 44.47-13.51ZM105.28-13.75L98.8-13.75 98.8-12.19 105.48-12.19 105.48 1.71 100.39 1.71 100.39-6.95 98.8-6.95 98.8 3.07 93.17 3.07 93.17-6.95 91.5-6.95 91.5 1.86 86.41 1.86 86.41-12.19 93.17-12.19 93.17-13.75 86.6-13.75 86.6-29.13 92.58-29.13 93.05-31.77 98.76-30.76 98.45-29.13 105.28-29.13 105.28-13.75ZM85.48-28.27L85.48-23.03 74.49-23.03 74.49-31.03 80.12-31.03 80.12-28.27 85.48-28.27ZM99.88-18.29L99.88-24.66 92.04-24.66 92.04-18.29 99.88-18.29ZM98.91-23.34L98.91-19.53 93.01-19.53 93.01-23.34 98.91-23.34ZM85.51-13.75L85.51-8.5 82.29-8.5 82.29-2.17 85.55-2.17 85.55 3.07 76.66 3.07 76.66-8.5 73.9-8.5 73.9-13.75 76.66-13.75 76.66-16.19 74.64-16.19 74.64-21.44 84.97-21.44 84.97-16.19 82.29-16.19 82.29-13.75 85.51-13.75ZM128.89-31.03L128.89 3.18 123.26 3.18 123.26-31.03 128.89-31.03ZM117.4-24.97L117.4-3.61 111.96-3.61 111.96-24.97 117.4-24.97ZM140.19-24.97L140.19-3.61 134.76-3.61 134.76-24.97 140.19-24.97ZM151.73-31.03L151.73-29.51 158.99-29.51 158.99-22.76 159.88-22.76 159.88-4.08 146.6-4.08 146.6-22.76 153.51-22.76 153.51-24.27 146.25-24.27 146.25-31.03 151.73-31.03ZM177.51-4.16L171.96-4.16 171.96-2.25 177.98-2.25 177.98 2.95 160.58 2.95 160.58-2.25 166.33-2.25 166.33-4.16 160.78-4.16 160.78-9.2 166.33-9.2 166.33-11.11 160.93-11.11 160.93-30.21 177.28-30.21 177.28-11.11 171.96-11.11 171.96-9.2 177.51-9.2 177.51-4.16ZM165.4-22.83L167.3-22.83 167.3-25.4 165.4-25.4 165.4-22.83ZM170.91-25.4L170.91-22.83 172.85-22.83 172.85-25.4 170.91-25.4ZM167.3-15.88L167.3-18.45 165.4-18.45 165.4-15.88 167.3-15.88ZM172.85-18.45L170.91-18.45 170.91-15.88 172.85-15.88 172.85-18.45ZM150.56-15.38L151.81-15.38 151.81-17.51 150.56-17.51 150.56-15.38ZM154.64-17.51L154.64-15.38 155.92-15.38 155.92-17.51 154.64-17.51ZM151.81-9.32L151.81-11.5 150.56-11.5 150.56-9.32 151.81-9.32ZM155.92-11.5L154.64-11.5 154.64-9.32 155.92-9.32 155.92-11.5ZM159.84-2.41L159.84 2.83 146.14 2.83 146.14-2.41 159.84-2.41Z" transform="translate(-2.680000066757202, 31.770000457763672)"></path></g> <!----> <!----> <!----> <!----> <!----> <!----> <!----></g></g> <g data-gra="path-slogan" fill-rule="" class="tp-slogan iconsvg-slogansvg" fill="#333" transform="translate(4.999992370605469,41.380001068115234)"><rect x="0" height="1" y="3.9750003814697266" width="16.650001525878906"></rect> <rect height="1" y="3.9750003814697266" width="16.650001525878906" x="148.6500015258789"></rect> <g transform="translate(19.650001525878906,0)"><g transform="scale(1)"><path d="M8.06-6.05L8.06-6.05L6.94-6.05Q6.52-7.78 4.55-7.83L4.55-7.83Q1.83-7.69 1.73-4.36L1.73-4.36Q1.73-0.80 4.59-0.80L4.59-0.80Q6.56-0.84 7.03-3.19L7.03-3.19L8.16-3.19Q7.64 0.05 4.36 0.14L4.36 0.14Q0.61 0 0.52-4.31L0.52-4.31Q0.70-8.63 4.55-8.81L4.55-8.81Q7.59-8.72 8.06-6.05ZM10.69-5.06L15.19-5.06L15.19-8.58L16.36-8.58L16.36 0L15.19 0L15.19-3.98L10.69-3.98L10.69 0L9.52 0L9.52-8.58L10.69-8.58L10.69-5.06ZM23.81 0L22.97-2.48L19.50-2.48L18.61 0L17.44 0L20.67-8.58L21.98-8.58L25.08 0L23.81 0ZM21.23-7.31L19.88-3.52L22.55-3.52L21.28-7.31L21.23-7.31ZM27.52-8.58L31.83-1.64L31.83-8.58L32.95-8.58L32.95 0L31.64 0L27.28-6.94L27.23-6.94L27.23 0L26.11 0L26.11-8.58L27.52-8.58ZM41.16-3.61L38.53-3.61L38.53-4.59L42.28-4.59L42.28 0L41.53 0L41.25-1.08Q40.27 0.09 38.44 0.14L38.44 0.14Q36.70 0.14 35.77-0.75L35.77-0.75Q34.36-2.06 34.41-4.36L34.41-4.36Q34.73-8.63 38.48-8.81L38.48-8.81Q41.67-8.63 42.14-6L42.14-6L41.02-6Q40.55-7.78 38.44-7.83L38.44-7.83Q35.77-7.64 35.63-4.31L35.63-4.31Q35.63-0.75 38.48-0.75L38.48-0.75Q39.52-0.75 40.27-1.31L40.27-1.31Q41.20-2.06 41.16-3.61L41.16-3.61ZM50.34-6.09L50.34-6.09L49.27-6.09Q49.17-7.73 47.11-7.83L47.11-7.83Q45.19-7.78 45.19-6.33L45.19-6.33Q45.19-5.39 46.22-5.25L46.22-5.25L48.66-4.69Q50.58-4.22 50.58-2.34L50.58-2.34Q50.53 0.05 47.20 0.14L47.20 0.14Q45.38 0.14 44.63-0.61L44.63-0.61Q43.69-1.31 43.73-2.77L43.73-2.77L44.86-2.77Q44.91-0.80 47.20-0.75L47.20-0.75Q49.45-0.80 49.50-2.20L49.50-2.20Q49.69-3.38 47.63-3.75L47.63-3.75L45.84-4.13Q44.02-4.64 44.02-6.19L44.02-6.19Q44.16-8.72 47.02-8.81L47.02-8.81Q50.25-8.81 50.34-6.09ZM53.20-5.06L57.70-5.06L57.70-8.58L58.88-8.58L58.88 0L57.70 0L57.70-3.98L53.20-3.98L53.20 0L52.03 0L52.03-8.58L53.20-8.58L53.20-5.06ZM66.33 0L65.48-2.48L62.02-2.48L61.13 0L59.95 0L63.19-8.58L64.50-8.58L67.59 0L66.33 0ZM63.75-7.31L62.39-3.52L65.06-3.52L63.80-7.31L63.75-7.31ZM71.25-1.92L71.25-2.77L72.33-2.77L72.33-2.16Q72.33-0.75 73.64-0.75L73.64-0.75Q75-0.75 75-2.25L75-2.25L75-8.58L76.17-8.58L76.17-2.30Q76.13 0.09 73.69 0.14L73.69 0.14Q71.39 0.09 71.25-1.92L71.25-1.92ZM78.14-8.58L79.31-8.58L79.31 0L78.14 0L78.14-8.58ZM82.69-8.58L87-1.64L87-8.58L88.13-8.58L88.13 0L86.81 0L82.45-6.94L82.41-6.94L82.41 0L81.28 0L81.28-8.58L82.69-8.58ZM96.66-8.58L93.75-4.41L96.80 0L95.34 0L93-3.52L90.66 0L89.25 0L92.34-4.41L89.44-8.58L90.89-8.58L93.05-5.30L95.25-8.58L96.66-8.58ZM98.06-8.58L99.23-8.58L99.23 0L98.06 0L98.06-8.58ZM106.88 0L106.03-2.48L102.56-2.48L101.67 0L100.50 0L103.73-8.58L105.05-8.58L108.14 0L106.88 0ZM104.30-7.31L102.94-3.52L105.61-3.52L104.34-7.31L104.30-7.31ZM115.97-4.27L115.97-4.27Q115.78-7.64 112.97-7.83L112.97-7.83Q110.11-7.69 109.97-4.27L109.97-4.27Q110.11-0.94 112.97-0.80L112.97-0.80Q115.78-0.98 115.97-4.27ZM117.14-4.27L117.14-4.27Q116.86 0 112.97 0.14L112.97 0.14Q109.03 0 108.75-4.27L108.75-4.27Q108.98-8.72 112.97-8.81L112.97-8.81Q116.86-8.67 117.14-4.27ZM118.50-8.58L119.67-8.58L119.67-1.03L124.03-1.03L124.03 0L118.50 0L118.50-8.58ZM125.34-8.58L126.52-8.58L126.52 0L125.34 0L125.34-8.58Z" transform="translate(-0.515625, 8.8125)"></path></g></g></g></g></g><defs v-gra="od"></defs></svg>